<?xml version="1.0" encoding="UTF-8" standalone="no"?>
<!-- Created with Inkscape (http://www.inkscape.org/) -->

<svg
   xmlns:dc="http://purl.org/dc/elements/1.1/"
   xmlns:cc="http://creativecommons.org/ns#"
   xmlns:rdf="http://www.w3.org/1999/02/22-rdf-syntax-ns#"
   xmlns:svg="http://www.w3.org/2000/svg"
   xmlns="http://www.w3.org/2000/svg"
   xmlns:sodipodi="http://sodipodi.sourceforge.net/DTD/sodipodi-0.dtd"
   xmlns:inkscape="http://www.inkscape.org/namespaces/inkscape"
   width="1400"
   height="400"
   id="svg2"
   sodipodi:version="0.32"
   inkscape:version="0.48.3.1 r9886"
   version="1.0"
   sodipodi:docname="jetty-logo-shadow.svg"
   inkscape:output_extension="org.inkscape.output.svg.inkscape"
   inkscape:export-filename="/home/joakim/code/intalio/jetty-documentation/src/docbkx/images/jetty-logo-shadow.png"
   inkscape:export-xdpi="34.09"
   inkscape:export-ydpi="34.09">
  <defs
     id="defs4">
    <inkscape:perspective
       sodipodi:type="inkscape:persp3d"
       inkscape:vp_x="0 : 526.18109 : 1"
       inkscape:vp_y="0 : 1000 : 0"
       inkscape:vp_z="744.09448 : 526.18109 : 1"
       inkscape:persp3d-origin="372.04724 : 350.78739 : 1"
       id="perspective10" />
    <inkscape:perspective
       id="perspective2390"
       inkscape:persp3d-origin="372.04724 : 350.78739 : 1"
       inkscape:vp_z="744.09448 : 526.18109 : 1"
       inkscape:vp_y="0 : 1000 : 0"
       inkscape:vp_x="0 : 526.18109 : 1"
       sodipodi:type="inkscape:persp3d" />
    <filter
       inkscape:collect="always"
       id="filter3295"
       x="-0.036928206"
       width="1.0738564"
       y="-0.15990376"
       height="1.3198075">
      <feGaussianBlur
         inkscape:collect="always"
         stdDeviation="20.425209"
         id="feGaussianBlur3297" />
    </filter>
  </defs>
  <sodipodi:namedview
     id="base"
     pagecolor="#ffffff"
     bordercolor="#666666"
     borderopacity="1.0"
     gridtolerance="10000"
     guidetolerance="10"
     objecttolerance="10"
     inkscape:pageopacity="0.0"
     inkscape:pageshadow="2"
     inkscape:zoom="0.61821336"
     inkscape:cx="638.23248"
     inkscape:cy="439.84756"
     inkscape:document-units="px"
     inkscape:current-layer="layer1"
     showgrid="false"
     inkscape:window-width="1679"
     inkscape:window-height="1001"
     inkscape:window-x="1"
     inkscape:window-y="48"
     showguides="true"
     inkscape:guide-bbox="true"
     showborder="true"
     inkscape:window-maximized="0" />
  <metadata
     id="metadata7">
    <rdf:RDF>
      <cc:Work
         rdf:about="">
        <dc:format>image/svg+xml</dc:format>
        <dc:type
           rdf:resource="http://purl.org/dc/dcmitype/StillImage" />
        <dc:title></dc:title>
      </cc:Work>
    </rdf:RDF>
  </metadata>
  <g
     inkscape:groupmode="layer"
     id="layer1"
     inkscape:label="Drop Shadow">
    <path
       style="fill:#121212;fill-opacity:0.76888889000000005;fill-rule:evenodd;stroke:none;stroke-width:25;stroke-linecap:butt;stroke-linejoin:round;stroke-miterlimit:4;stroke-dasharray:none;stroke-opacity:1;display:inline;filter:url(#filter3295)"
       d="M 133.14892,74.210753 C 127.32606,74.207483 122.27201,78.224803 120.96142,83.898253 L 110.61767,128.6795 C 110.03629,131.2768 110.29904,133.99187 111.36767,136.4295 C 109.33278,138.16652 107.90884,140.51055 107.30517,143.117 L 67.46142,315.617 C 66.521262,315.6963 65.709017,315.77825 64.24267,315.83575 C 57.642403,316.0821 52.37259,321.42036 52.21142,328.02325 L 51.27392,367.992 C 51.198431,371.36099 52.486258,374.61778 54.845444,377.02403 C 57.20463,379.43028 60.435344,380.78218 63.80517,380.77325 L 131.18017,380.5545 C 131.39916,380.54984 131.61798,380.53942 131.83642,380.52325 C 140.58271,380.04033 149.50103,376.74923 156.05517,370.367 C 162.60931,363.98478 166.70238,355.49431 169.74267,345.14825 C 169.81228,344.91058 169.8748,344.67089 169.93017,344.4295 L 185.05517,278.83575 C 185.38711,284.40834 186.31145,289.70084 188.05517,294.71075 C 190.72151,302.37149 195.75549,309.41129 202.83642,313.867 C 209.91735,318.32271 218.43366,320.14825 227.64892,320.14825 L 398.49267,320.14825 C 404.30384,320.13699 409.34096,316.12283 410.64892,310.46075 L 418.64892,275.8045 C 419.50468,272.09658 418.62495,268.20076 416.25888,265.22037 C 413.89281,262.23997 410.29806,260.49955 406.49267,260.492 L 294.14892,260.492 L 295.27392,255.64825 L 413.36767,255.64825 C 419.17884,255.63699 424.21596,251.62283 425.52392,245.96075 C 425.994,243.92461 428.7761,237.60241 431.96142,227.0545 C 434.57148,218.41152 437.29104,206.4887 439.49267,190.1795 L 450.58642,190.1795 L 436.61767,250.58575 C 433.83028,262.65929 433.25054,278.51751 440.52392,293.367 C 447.7973,308.21649 464.78839,320.14825 488.77392,320.14825 L 587.55517,320.14825 C 593.36634,320.13699 598.40346,316.12283 599.71142,310.46075 L 607.71142,275.8045 C 608.56718,272.09658 607.68745,268.20076 605.32138,265.22037 C 602.95531,262.23997 599.36056,260.49955 595.55517,260.492 C 566.44463,260.49201 549.53568,259.6817 543.21142,258.867 C 543.42812,257.44728 543.42232,257.233 544.14892,254.08575 L 558.89892,190.1795 L 611.43017,190.1795 L 617.55517,190.1795 L 625.30517,190.1795 L 611.33642,250.58575 C 608.54904,262.65928 607.96929,278.51751 615.24267,293.367 C 622.51605,308.21649 639.50714,320.14825 663.49267,320.14825 L 762.27392,320.14825 C 768.08509,320.13699 773.12221,316.12283 774.43017,310.46075 L 776.71142,300.5545 C 784.37997,311.40324 799.92403,320.14825 823.74267,320.14825 L 876.71142,320.14825 C 870.84247,320.97 863.04125,321.617 852.30517,321.617 L 768.93017,321.617 C 763.10731,321.61373 758.05326,325.63105 756.74267,331.3045 L 749.30517,363.5545 C 748.44941,367.26243 749.32914,371.15825 751.69521,374.13864 C 754.06128,377.11903 757.65603,378.85945 761.46142,378.867 L 892.93017,378.867 C 923.24425,378.867 944.16687,379.27677 961.27392,374.33575 C 978.38097,369.39473 990.66904,355.65737 994.99267,336.9295 L 1038.4302,148.742 C 1039.2872,145.02873 1038.4036,141.12735 1036.0304,138.14563 C 1033.6572,135.16391 1030.0535,133.42752 1026.2427,133.4295 L 943.83642,133.4295 C 938.01356,133.42623 932.95951,137.44355 931.64892,143.117 L 904.55517,260.492 L 882.11767,260.492 L 907.93017,148.742 C 908.78715,145.02874 907.9036,141.12736 905.5304,138.14565 C 903.15719,135.16393 899.55354,133.42754 895.74267,133.4295 L 812.36767,133.4295 C 810.12122,133.43967 807.91903,134.05499 805.99267,135.21075 C 804.06631,134.05499 801.86412,133.43967 799.61767,133.4295 L 746.71142,133.4295 L 751.30517,113.58575 C 752.16093,109.87782 751.2812,105.98201 748.91513,103.00161 C 746.54906,100.02122 742.95431,98.280803 739.14892,98.273253 L 656.46142,98.273253 C 650.63856,98.269983 645.58451,102.2873 644.27392,107.96075 L 638.39892,133.4295 L 624.89892,133.4295 L 618.74267,133.4295 L 571.99267,133.4295 L 576.58642,113.58575 C 577.44218,109.87782 576.56245,105.98201 574.19638,103.00161 C 571.83031,100.02122 568.23556,98.280803 564.43017,98.273253 L 481.74267,98.273253 C 475.91981,98.269983 470.86576,102.2873 469.55517,107.96075 L 463.68017,133.4295 L 444.02392,133.4295 C 438.20106,133.42623 433.14701,137.44355 431.83642,143.117 L 430.02392,151.0545 C 421.62416,141.56409 407.22229,133.4295 387.68017,133.4295 L 252.46142,133.4295 C 237.21293,133.42952 222.49219,141.92039 213.46142,155.77325 L 215.08642,148.742 C 215.69431,146.1414 215.45338,143.41448 214.39892,140.96075 C 216.4166,139.22739 217.8288,136.89563 218.43017,134.3045 L 228.77392,89.523253 C 229.6309,85.809993 228.74735,81.908613 226.37415,78.926903 C 224.00094,75.945183 220.39729,74.208793 216.58642,74.210753 L 133.14892,74.210753 z M 1230.6802,74.210753 C 1225.8279,74.217643 1221.418,77.031713 1219.3676,81.429503 L 1121.7426,290.742 L 1131.5239,248.367 C 1132.3797,244.65907 1131.4999,240.76324 1129.1338,237.78285 C 1126.7678,234.80245 1123.173,233.06204 1119.3676,233.0545 L 1035.6176,233.0545 C 1029.7948,233.05126 1024.7408,237.06857 1023.4302,242.742 L 1009.0864,304.83575 C 1008.2294,308.54901 1009.113,312.45039 1011.4862,315.43211 C 1013.8594,318.41382 1017.463,320.15022 1021.2739,320.14825 L 1105.0239,320.14825 C 1106.1113,320.14302 1107.1933,319.99595 1108.2426,319.71075 L 1103.9926,328.83575 C 1102.1877,332.70937 1102.4865,337.2366 1104.7849,340.83938 C 1107.0834,344.44215 1111.0629,346.62121 1115.3364,346.617 L 1157.4926,346.617 C 1162.3561,346.62224 1166.7813,343.80626 1168.8364,339.39825 L 1284.1802,91.992003 C 1285.9828,88.123403 1285.6872,83.602493 1283.3963,80.001533 C 1281.1053,76.400563 1277.1356,74.217203 1272.8676,74.210753 L 1230.6802,74.210753 z M 1324.0552,74.210753 C 1319.2029,74.217643 1314.793,77.031713 1312.7426,81.429503 L 1197.3676,328.83575 C 1195.5627,332.70937 1195.8615,337.2366 1198.1599,340.83938 C 1200.4584,344.44215 1204.4379,346.62121 1208.7114,346.617 L 1250.8676,346.617 C 1255.7311,346.62224 1260.1563,343.80626 1262.2114,339.39825 L 1377.5552,91.992003 C 1379.3578,88.123403 1379.0622,83.602493 1376.7713,80.001533 C 1374.4803,76.400563 1370.5106,74.217203 1366.2426,74.210753 L 1324.0552,74.210753 z M 1058.6176,133.4295 C 1052.7948,133.42628 1047.7408,137.44358 1046.4302,143.117 L 1032.0864,205.21075 C 1031.2294,208.92401 1032.113,212.82539 1034.4862,215.80711 C 1036.8594,218.78882 1040.463,220.52522 1044.2739,220.52325 L 1128.0239,220.52325 C 1133.8561,220.52318 1138.9133,216.49037 1140.2114,210.8045 L 1154.5239,148.742 C 1155.3797,145.03407 1154.4999,141.13824 1152.1338,138.15784 C 1149.7678,135.17745 1146.173,133.43703 1142.3676,133.4295 L 1058.6176,133.4295 z M 321.14892,190.1795 C 324.49626,190.1795 326.64455,190.50681 327.77392,190.77325 C 327.79548,191.54482 327.76376,193.22107 327.61767,195.492 L 310.96142,195.492 C 311.68961,194.18337 312.37493,193.13181 312.93017,192.5545 C 314.73432,190.67863 315.72887,190.1795 321.14892,190.1795 z M 733.61767,190.1795 L 789.30517,190.1795 L 772.99267,260.8045 C 772.10059,260.60116 771.18888,260.49636 770.27392,260.492 C 741.16337,260.492 724.25443,259.6817 717.93017,258.867 C 718.14687,257.44728 718.14107,257.233 718.86767,254.08575 L 733.61767,190.1795 z"
       id="path3181"
       sodipodi:nodetypes="cccccccccscccssccssccccsccccsscccsccccsccccccccsccccccccccsccsccsccccccsccccccsccccccccsccccccccccccccsccccccsccccsccccsccccscccccsccccscccccsccccsccccccscccccccc" />
  </g>
  <g
     inkscape:groupmode="layer"
     id="layer2"
     inkscape:label="Jetty"
     style="display:inline"
     transform="translate(-1.845606,-221.31978)">
    <path
       id="path3193"
       style="fill:#fc390e;fill-opacity:1;fill-rule:evenodd;stroke:#000000;stroke-width:25;stroke-linecap:butt;stroke-linejoin:round;stroke-miterlimit:4;stroke-dasharray:none;stroke-opacity:1"
       d="M 468.5751,304.59386 L 460.4501,339.75011 L 430.85635,339.75011 L 423.54385,371.50011 L 453.1376,371.50011 L 435.6376,447.21886 C 431.11514,466.80783 434.69559,501.46886 475.60635,501.46886 L 574.3876,501.46886 L 582.3876,466.81261 C 513.82035,466.81262 513.81207,466.80768 518.8251,445.09386 L 535.8251,371.50011 L 598.2626,371.50011 L 604.3876,371.50011 L 627.85635,371.50011 L 610.35635,447.21886 C 605.83388,466.80782 609.41434,501.46886 650.3251,501.46886 L 749.10635,501.46886 L 757.10635,466.81261 C 688.53909,466.81261 688.53082,466.80768 693.54385,445.09386 L 710.54385,371.50011 L 779.10635,371.50011 L 786.4501,339.75011 L 717.85635,339.75011 L 725.98135,304.59386 L 643.29385,304.59386 L 635.16885,339.75011 L 611.73135,339.75011 L 605.5751,339.75011 L 543.1376,339.75011 L 551.2626,304.59386 L 468.5751,304.59386 z M 106.32205,339.73892 L 65.825288,515.14967 C 63.418773,522.20878 59.752966,521.8319 51.570815,522.15277 L 50.608209,562.10092 L 117.99063,561.86026 C 131.06603,561.13831 139.21491,553.72589 144.58946,535.43638 L 189.76977,339.73892 L 106.32205,339.73892 z M 119.98951,280.53864 L 109.65558,325.29983 L 193.1033,325.29983 L 203.43723,280.53864 L 119.98951,280.53864 z M 239.29385,339.75011 C 224.85477,339.75012 208.26802,352.04925 204.6376,371.50011 L 188.6376,436.96886 C 179.27284,477.53211 184.20976,501.46886 214.48135,501.46886 L 385.3251,501.46886 L 393.3251,466.81261 L 265.29385,466.81261 L 272.16885,436.96886 L 400.2001,436.96886 C 402.2537,428.07372 410.80305,415.14706 415.3251,371.50011 C 416.6053,365.955 407.76262,339.75011 374.5126,339.75011 L 239.29385,339.75011 z M 307.98135,371.50011 C 325.75108,371.50011 330.91518,377.05789 325.2001,401.81261 L 280.29385,401.81261 C 285.80848,377.9261 293.45487,371.5001 307.98135,371.50011 z M 799.21238,339.73892 L 769.87735,466.80292 C 769.87735,466.80292 761.87689,501.45673 810.59962,501.45673 L 893.34691,501.45673 C 889.21672,519.34655 887.23544,527.9284 839.14197,527.9284 L 755.76542,527.9284 L 748.32055,560.1757 L 879.79056,560.1757 C 940.41876,560.1757 962.20636,560.1757 969.65123,527.9284 L 1013.0982,339.73892 L 930.6824,339.73892 L 901.34737,466.80292 L 853.2539,466.80292 L 882.58893,339.73892 L 799.21238,339.73892 z M 1045.4591,339.73892 L 1031.1249,401.82701 L 1114.8716,401.82701 L 1129.2058,339.73892 L 1045.4591,339.73892 z M 1022.4578,439.36864 L 1008.1236,501.45673 L 1091.8702,501.45673 L 1106.2044,439.36864 L 1022.4578,439.36864 z M 1217.5384,280.53864 L 1102.1787,527.9284 L 1144.3505,527.9284 L 1259.7102,280.53864 L 1217.5384,280.53864 z M 1310.9112,280.53864 L 1195.5515,527.9284 L 1237.7233,527.9284 L 1353.083,280.53864 L 1310.9112,280.53864 z" />
    <path
       d="M 468.5751,304.59386 L 460.4501,339.75011 L 430.85635,339.75011 L 423.54385,371.50011 L 453.1376,371.50011 L 435.6376,447.21886 C 431.11514,466.80783 434.69559,501.46886 475.60635,501.46886 L 574.3876,501.46886 L 582.3876,466.81261 C 513.82035,466.81262 513.81207,466.80768 518.8251,445.09386 L 535.8251,371.50011 L 598.2626,371.50011 L 604.3876,371.50011 L 627.85635,371.50011 L 610.35635,447.21886 C 605.83388,466.80782 609.41434,501.46886 650.3251,501.46886 L 749.10635,501.46886 L 757.10635,466.81261 C 688.53909,466.81261 688.53082,466.80768 693.54385,445.09386 L 710.54385,371.50011 L 779.10635,371.50011 L 786.4501,339.75011 L 717.85635,339.75011 L 725.98135,304.59386 L 643.29385,304.59386 L 635.16885,339.75011 L 611.73135,339.75011 L 605.5751,339.75011 L 543.1376,339.75011 L 551.2626,304.59386 L 468.5751,304.59386 z M 106.32205,339.73892 L 65.825288,515.14967 C 63.418773,522.20878 59.752966,521.8319 51.570815,522.15277 L 50.608209,562.10092 L 117.99063,561.86026 C 131.06603,561.13831 139.21491,553.72589 144.58946,535.43638 L 189.76977,339.73892 L 106.32205,339.73892 z M 119.98951,280.53864 L 109.65558,325.29983 L 193.1033,325.29983 L 203.43723,280.53864 L 119.98951,280.53864 z M 239.29385,339.75011 C 224.85477,339.75012 208.26802,352.04925 204.6376,371.50011 L 188.6376,436.96886 C 179.27284,477.53211 184.20976,501.46886 214.48135,501.46886 L 385.3251,501.46886 L 393.3251,466.81261 L 265.29385,466.81261 L 272.16885,436.96886 L 400.2001,436.96886 C 402.2537,428.07372 410.80305,415.14706 415.3251,371.50011 C 416.6053,365.955 407.76262,339.75011 374.5126,339.75011 L 239.29385,339.75011 z M 307.98135,371.50011 C 325.75108,371.50011 330.91518,377.05789 325.2001,401.81261 L 280.29385,401.81261 C 285.80848,377.9261 293.45487,371.5001 307.98135,371.50011 z M 799.21238,339.73892 L 769.87735,466.80292 C 769.87735,466.80292 761.87689,501.45673 810.59962,501.45673 L 893.34691,501.45673 C 889.21672,519.34655 887.23544,527.9284 839.14197,527.9284 L 755.76542,527.9284 L 748.32055,560.1757 L 879.79056,560.1757 C 940.41876,560.1757 962.20636,560.1757 969.65123,527.9284 L 1013.0982,339.73892 L 930.6824,339.73892 L 901.34737,466.80292 L 853.2539,466.80292 L 882.58893,339.73892 L 799.21238,339.73892 z M 1045.4591,339.73892 L 1031.1249,401.82701 L 1114.8716,401.82701 L 1129.2058,339.73892 L 1045.4591,339.73892 z M 1022.4578,439.36864 L 1008.1236,501.45673 L 1091.8702,501.45673 L 1106.2044,439.36864 L 1022.4578,439.36864 z M 1217.5384,280.53864 L 1102.1787,527.9284 L 1144.3505,527.9284 L 1259.7102,280.53864 L 1217.5384,280.53864 z M 1310.9112,280.53864 L 1195.5515,527.9284 L 1237.7233,527.9284 L 1353.083,280.53864 L 1310.9112,280.53864 z"
       style="fill:#fc390e;fill-opacity:1;fill-rule:evenodd;stroke:none;stroke-width:30;stroke-linecap:butt;stroke-linejoin:miter;stroke-miterlimit:4;stroke-dasharray:none;stroke-opacity:1"
       id="path3316" />
  </g>
</svg>
