<?xml version="1.0" encoding="UTF-8" standalone="no"?>
<!-- Created with Inkscape (http://www.inkscape.org/) -->

<svg
   xmlns:dc="http://purl.org/dc/elements/1.1/"
   xmlns:cc="http://creativecommons.org/ns#"
   xmlns:rdf="http://www.w3.org/1999/02/22-rdf-syntax-ns#"
   xmlns:svg="http://www.w3.org/2000/svg"
   xmlns="http://www.w3.org/2000/svg"
   xmlns:sodipodi="http://sodipodi.sourceforge.net/DTD/sodipodi-0.dtd"
   xmlns:inkscape="http://www.inkscape.org/namespaces/inkscape"
   width="400"
   height="400"
   id="svg2"
   sodipodi:version="0.32"
   inkscape:version="0.48.1 r9760"
   version="1.0"
   sodipodi:docname="jetty-avatar.svg"
   inkscape:output_extension="org.inkscape.output.svg.inkscape"
   inkscape:export-filename="/home/joakim/code/intalio/logos/jetty-avatar.png"
   inkscape:export-xdpi="28.799999"
   inkscape:export-ydpi="28.799999">
  <defs
     id="defs4">
    <inkscape:perspective
       sodipodi:type="inkscape:persp3d"
       inkscape:vp_x="0 : 526.18109 : 1"
       inkscape:vp_y="0 : 1000 : 0"
       inkscape:vp_z="744.09448 : 526.18109 : 1"
       inkscape:persp3d-origin="372.04724 : 350.78739 : 1"
       id="perspective10" />
    <inkscape:perspective
       id="perspective2390"
       inkscape:persp3d-origin="372.04724 : 350.78739 : 1"
       inkscape:vp_z="744.09448 : 526.18109 : 1"
       inkscape:vp_y="0 : 1000 : 0"
       inkscape:vp_x="0 : 526.18109 : 1"
       sodipodi:type="inkscape:persp3d" />
    <filter
       inkscape:collect="always"
       id="filter3853"
       x="-0.15826963"
       width="1.3165393"
       y="-0.20584013"
       height="1.4116803">
      <feGaussianBlur
         inkscape:collect="always"
         stdDeviation="26.292865"
         id="feGaussianBlur3855" />
    </filter>
  </defs>
  <sodipodi:namedview
     id="base"
     pagecolor="#525252"
     bordercolor="#666666"
     borderopacity="1.0"
     gridtolerance="10000"
     guidetolerance="10"
     objecttolerance="10"
     inkscape:pageopacity="0"
     inkscape:pageshadow="2"
     inkscape:zoom="0.87428571"
     inkscape:cx="368.87255"
     inkscape:cy="200"
     inkscape:document-units="px"
     inkscape:current-layer="layer2"
     showgrid="false"
     inkscape:window-width="1920"
     inkscape:window-height="1056"
     inkscape:window-x="0"
     inkscape:window-y="24"
     showguides="true"
     inkscape:guide-bbox="true"
     showborder="true"
     inkscape:window-maximized="1" />
  <metadata
     id="metadata7">
    <rdf:RDF>
      <cc:Work
         rdf:about="">
        <dc:format>image/svg+xml</dc:format>
        <dc:type
           rdf:resource="http://purl.org/dc/dcmitype/StillImage" />
        <dc:title></dc:title>
      </cc:Work>
    </rdf:RDF>
  </metadata>
  <g
     inkscape:groupmode="layer"
     id="layer2"
     inkscape:label="Jetty"
     style="display:inline"
     transform="translate(-1.845606,-221.31978)">
    <g
       id="g3857"
       transform="matrix(0.88669095,0,0,0.88669095,25.158515,48.38446)">
      <path
         inkscape:connector-curvature="0"
         id="path3004"
         d="m 84.37204,268.03851 a 12.50125,12.50125 0 0 0 -12.1875,9.6875 l -10.3125,44.75 a 12.50125,12.50125 0 0 0 0.71875,7.75 12.50125,12.50125 0 0 0 -4.0625,6.6875 L 18.68454,509.44476 c -0.93999,0.0793 -1.75306,0.16127 -3.21875,0.21875 a 12.50125,12.50125 0 0 0 -12,12.1875 l -0.96875,39.9375 a 12.50125,12.50125 0 0 0 12.53125,12.8125 l 67.40625,-0.25 a 12.50125,12.50125 0 0 0 0.625,0 c 8.74629,-0.48292 17.66461,-3.77402 24.21875,-10.15625 6.55414,-6.38223 10.64721,-14.90394 13.6875,-25.25 a 12.50125,12.50125 0 0 0 0.1875,-0.6875 l 5.625,-24.3125 3.75,0 -4.0625,8.6875 a 12.50125,12.50125 0 0 0 11.34375,17.78125 l 42.15625,0 a 12.50125,12.50125 0 0 0 11.34375,-7.21875 l 115.34375,-247.375 a 12.50125,12.50125 0 0 0 -11.3125,-17.78125 l -42.1875,0 a 12.50125,12.50125 0 0 0 -11.3125,7.21875 l -24.59375,52.75 a 12.50125,12.50125 0 0 0 -4.375,-0.78125 l -43.03125,0 10.15625,-43.875 a 12.50125,12.50125 0 0 0 -12.1875,-15.3125 l -83.4375,0 z m 262.15625,0 a 12.50125,12.50125 0 0 0 -11.3125,7.21875 l -115.375,247.375 a 12.50125,12.50125 0 0 0 11.34375,17.78125 l 42.15625,0 a 12.50125,12.50125 0 0 0 11.34375,-7.21875 l 115.34375,-247.375 a 12.50125,12.50125 0 0 0 -11.3125,-17.78125 l -42.1875,0 z m -196.75,146.28125 27.21875,0 -5.84375,12.53125 -24.28125,0 2.90625,-12.53125 z"
         style="font-size:medium;font-style:normal;font-variant:normal;font-weight:normal;font-stretch:normal;text-indent:0;text-align:start;text-decoration:none;line-height:normal;letter-spacing:normal;word-spacing:normal;text-transform:none;direction:ltr;block-progression:tb;writing-mode:lr-tb;text-anchor:start;baseline-shift:baseline;color:#000000;fill:#ffffff;fill-opacity:1;fill-rule:evenodd;stroke:none;stroke-width:25;marker:none;visibility:visible;display:inline;overflow:visible;filter:url(#filter3853);enable-background:accumulate;font-family:Sans;-inkscape-font-specification:Sans" />
      <g
         id="g3058">
        <g
           id="g3032"
           transform="translate(-33.169935,0)">
          <path
             id="path2996"
             d="M 106.32205,339.73892 65.825288,515.14967 c -2.406515,7.05911 -6.072322,6.68223 -14.254473,7.0031 l -0.962606,39.94815 67.382421,-0.24066 c 13.0754,-0.72195 21.22428,-8.13437 26.59883,-26.42388 l 45.18031,-195.69746 z"
             style="fill:#fc390e;fill-opacity:1;fill-rule:evenodd;stroke:#000000;stroke-width:28.19471741;stroke-linecap:butt;stroke-linejoin:round;stroke-miterlimit:4;stroke-opacity:1;stroke-dasharray:none"
             inkscape:connector-curvature="0" />
          <path
             id="path2994"
             d="m 119.98951,280.53864 -10.33393,44.76119 83.44772,0 10.33393,-44.76119 z"
             style="fill:#fc390e;fill-opacity:1;fill-rule:evenodd;stroke:#000000;stroke-width:28.19471741;stroke-linecap:butt;stroke-linejoin:round;stroke-miterlimit:4;stroke-opacity:1;stroke-dasharray:none"
             inkscape:connector-curvature="0" />
          <path
             id="path3020"
             d="M 106.32205,339.73892 65.825288,515.14967 c -2.406515,7.05911 -6.072322,6.68223 -14.254473,7.0031 l -0.962606,39.94815 67.382421,-0.24066 c 13.0754,-0.72195 21.22428,-8.13437 26.59883,-26.42388 l 45.18031,-195.69746 z"
             style="fill:#fc390e;fill-opacity:1;fill-rule:evenodd;stroke:none"
             inkscape:connector-curvature="0" />
          <path
             id="path3018"
             d="m 119.98951,280.53864 -10.33393,44.76119 83.44772,0 10.33393,-44.76119 z"
             style="fill:#fc390e;fill-opacity:1;fill-rule:evenodd;stroke:none"
             inkscape:connector-curvature="0" />
        </g>
        <g
           id="g3046"
           transform="translate(-287.0915,0)">
          <path
             id="path2988"
             d="m 542.7018,280.53864 -115.3597,247.38976 42.1718,0 115.3597,-247.38976 z"
             style="fill:#fc390e;fill-opacity:1;fill-rule:evenodd;stroke:#000000;stroke-width:28.19471741;stroke-linecap:butt;stroke-linejoin:round;stroke-miterlimit:4;stroke-opacity:1;stroke-dasharray:none"
             inkscape:connector-curvature="0" />
          <path
             id="path3193"
             d="m 636.0746,280.53864 -115.3597,247.38976 42.1718,0 115.3597,-247.38976 z"
             style="fill:#fc390e;fill-opacity:1;fill-rule:evenodd;stroke:#000000;stroke-width:28.19471741;stroke-linecap:butt;stroke-linejoin:round;stroke-miterlimit:4;stroke-opacity:1;stroke-dasharray:none"
             inkscape:connector-curvature="0" />
          <path
             id="path3012"
             d="m 542.7018,280.53864 -115.3597,247.38976 42.1718,0 115.3597,-247.38976 z"
             style="fill:#fc390e;fill-opacity:1;fill-rule:evenodd;stroke:none"
             inkscape:connector-curvature="0" />
          <path
             id="path3316"
             d="m 636.0746,280.53864 -115.3597,247.38976 42.1718,0 115.3597,-247.38976 z"
             style="fill:#fc390e;fill-opacity:1;fill-rule:evenodd;stroke:none"
             inkscape:connector-curvature="0" />
        </g>
        <g
           id="g3052"
           transform="translate(-239.05228,0)">
          <path
             id="path2992"
             d="m 370.6225,339.73892 -14.3342,62.08809 83.7467,0 14.3342,-62.08809 z"
             style="fill:#fc390e;fill-opacity:1;fill-rule:evenodd;stroke:#000000;stroke-width:28.19471741;stroke-linecap:butt;stroke-linejoin:round;stroke-miterlimit:4;stroke-opacity:1;stroke-dasharray:none"
             inkscape:connector-curvature="0" />
          <path
             id="path2990"
             d="m 347.6212,439.36864 -14.3342,62.08809 83.7466,0 14.3342,-62.08809 z"
             style="fill:#fc390e;fill-opacity:1;fill-rule:evenodd;stroke:#000000;stroke-width:28.19471741;stroke-linecap:butt;stroke-linejoin:round;stroke-miterlimit:4;stroke-opacity:1;stroke-dasharray:none"
             inkscape:connector-curvature="0" />
          <path
             id="path3016"
             d="m 370.6225,339.73892 -14.3342,62.08809 83.7467,0 14.3342,-62.08809 z"
             style="fill:#fc390e;fill-opacity:1;fill-rule:evenodd;stroke:none"
             inkscape:connector-curvature="0" />
          <path
             id="path3014"
             d="m 347.6212,439.36864 -14.3342,62.08809 83.7466,0 14.3342,-62.08809 z"
             style="fill:#fc390e;fill-opacity:1;fill-rule:evenodd;stroke:none"
             inkscape:connector-curvature="0" />
        </g>
      </g>
    </g>
  </g>
</svg>
