<?xml version="1.0" encoding="UTF-8" standalone="no"?>
<!-- Created with Inkscape (http://www.inkscape.org/) -->
<svg
   xmlns:dc="http://purl.org/dc/elements/1.1/"
   xmlns:cc="http://creativecommons.org/ns#"
   xmlns:rdf="http://www.w3.org/1999/02/22-rdf-syntax-ns#"
   xmlns:svg="http://www.w3.org/2000/svg"
   xmlns="http://www.w3.org/2000/svg"
   xmlns:sodipodi="http://sodipodi.sourceforge.net/DTD/sodipodi-0.dtd"
   xmlns:inkscape="http://www.inkscape.org/namespaces/inkscape"
   width="1400"
   height="400"
   id="svg2"
   sodipodi:version="0.32"
   inkscape:version="0.46"
   version="1.0"
   sodipodi:docname="jetty-logo.svg"
   inkscape:output_extension="org.inkscape.output.svg.inkscape"
   inkscape:export-filename="/home/joakim/documents/Webtide/jetty-logo.png"
   inkscape:export-xdpi="90"
   inkscape:export-ydpi="90">
  <defs
     id="defs4">
    <inkscape:perspective
       sodipodi:type="inkscape:persp3d"
       inkscape:vp_x="0 : 526.18109 : 1"
       inkscape:vp_y="0 : 1000 : 0"
       inkscape:vp_z="744.09448 : 526.18109 : 1"
       inkscape:persp3d-origin="372.04724 : 350.78739 : 1"
       id="perspective10" />
    <inkscape:perspective
       id="perspective2390"
       inkscape:persp3d-origin="372.04724 : 350.78739 : 1"
       inkscape:vp_z="744.09448 : 526.18109 : 1"
       inkscape:vp_y="0 : 1000 : 0"
       inkscape:vp_x="0 : 526.18109 : 1"
       sodipodi:type="inkscape:persp3d" />
  </defs>
  <sodipodi:namedview
     id="base"
     pagecolor="#ffffff"
     bordercolor="#666666"
     borderopacity="1.0"
     gridtolerance="10000"
     guidetolerance="10"
     objecttolerance="10"
     inkscape:pageopacity="0.0"
     inkscape:pageshadow="2"
     inkscape:zoom="0.87428571"
     inkscape:cx="700"
     inkscape:cy="200"
     inkscape:document-units="px"
     inkscape:current-layer="layer2"
     showgrid="false"
     inkscape:window-width="1679"
     inkscape:window-height="1001"
     inkscape:window-x="1"
     inkscape:window-y="48"
     showguides="true"
     inkscape:guide-bbox="true"
     showborder="true" />
  <metadata
     id="metadata7">
    <rdf:RDF>
      <cc:Work
         rdf:about="">
        <dc:format>image/svg+xml</dc:format>
        <dc:type
           rdf:resource="http://purl.org/dc/dcmitype/StillImage" />
      </cc:Work>
    </rdf:RDF>
  </metadata>
  <g
     inkscape:groupmode="layer"
     id="layer2"
     inkscape:label="Jetty"
     style="display:inline"
     transform="translate(-1.845606,-221.31978)">
    <path
       id="path3193"
       style="fill:#fc390e;fill-opacity:1;fill-rule:evenodd;stroke:#000000;stroke-width:25;stroke-linecap:butt;stroke-linejoin:round;stroke-miterlimit:4;stroke-dasharray:none;stroke-opacity:1"
       d="M 468.5751,304.59386 L 460.4501,339.75011 L 430.85635,339.75011 L 423.54385,371.50011 L 453.1376,371.50011 L 435.6376,447.21886 C 431.11514,466.80783 434.69559,501.46886 475.60635,501.46886 L 574.3876,501.46886 L 582.3876,466.81261 C 513.82035,466.81262 513.81207,466.80768 518.8251,445.09386 L 535.8251,371.50011 L 598.2626,371.50011 L 604.3876,371.50011 L 627.85635,371.50011 L 610.35635,447.21886 C 605.83388,466.80782 609.41434,501.46886 650.3251,501.46886 L 749.10635,501.46886 L 757.10635,466.81261 C 688.53909,466.81261 688.53082,466.80768 693.54385,445.09386 L 710.54385,371.50011 L 779.10635,371.50011 L 786.4501,339.75011 L 717.85635,339.75011 L 725.98135,304.59386 L 643.29385,304.59386 L 635.16885,339.75011 L 611.73135,339.75011 L 605.5751,339.75011 L 543.1376,339.75011 L 551.2626,304.59386 L 468.5751,304.59386 z M 106.32205,339.73892 L 65.825288,515.14967 C 63.418773,522.20878 59.752966,521.8319 51.570815,522.15277 L 50.608209,562.10092 L 117.99063,561.86026 C 131.06603,561.13831 139.21491,553.72589 144.58946,535.43638 L 189.76977,339.73892 L 106.32205,339.73892 z M 119.98951,280.53864 L 109.65558,325.29983 L 193.1033,325.29983 L 203.43723,280.53864 L 119.98951,280.53864 z M 239.29385,339.75011 C 224.85477,339.75012 208.26802,352.04925 204.6376,371.50011 L 188.6376,436.96886 C 179.27284,477.53211 184.20976,501.46886 214.48135,501.46886 L 385.3251,501.46886 L 393.3251,466.81261 L 265.29385,466.81261 L 272.16885,436.96886 L 400.2001,436.96886 C 402.2537,428.07372 410.80305,415.14706 415.3251,371.50011 C 416.6053,365.955 407.76262,339.75011 374.5126,339.75011 L 239.29385,339.75011 z M 307.98135,371.50011 C 325.75108,371.50011 330.91518,377.05789 325.2001,401.81261 L 280.29385,401.81261 C 285.80848,377.9261 293.45487,371.5001 307.98135,371.50011 z M 799.21238,339.73892 L 769.87735,466.80292 C 769.87735,466.80292 761.87689,501.45673 810.59962,501.45673 L 893.34691,501.45673 C 889.21672,519.34655 887.23544,527.9284 839.14197,527.9284 L 755.76542,527.9284 L 748.32055,560.1757 L 879.79056,560.1757 C 940.41876,560.1757 962.20636,560.1757 969.65123,527.9284 L 1013.0982,339.73892 L 930.6824,339.73892 L 901.34737,466.80292 L 853.2539,466.80292 L 882.58893,339.73892 L 799.21238,339.73892 z M 1045.4591,339.73892 L 1031.1249,401.82701 L 1114.8716,401.82701 L 1129.2058,339.73892 L 1045.4591,339.73892 z M 1022.4578,439.36864 L 1008.1236,501.45673 L 1091.8702,501.45673 L 1106.2044,439.36864 L 1022.4578,439.36864 z M 1217.5384,280.53864 L 1102.1787,527.9284 L 1144.3505,527.9284 L 1259.7102,280.53864 L 1217.5384,280.53864 z M 1310.9112,280.53864 L 1195.5515,527.9284 L 1237.7233,527.9284 L 1353.083,280.53864 L 1310.9112,280.53864 z" />
    <path
       d="M 468.5751,304.59386 L 460.4501,339.75011 L 430.85635,339.75011 L 423.54385,371.50011 L 453.1376,371.50011 L 435.6376,447.21886 C 431.11514,466.80783 434.69559,501.46886 475.60635,501.46886 L 574.3876,501.46886 L 582.3876,466.81261 C 513.82035,466.81262 513.81207,466.80768 518.8251,445.09386 L 535.8251,371.50011 L 598.2626,371.50011 L 604.3876,371.50011 L 627.85635,371.50011 L 610.35635,447.21886 C 605.83388,466.80782 609.41434,501.46886 650.3251,501.46886 L 749.10635,501.46886 L 757.10635,466.81261 C 688.53909,466.81261 688.53082,466.80768 693.54385,445.09386 L 710.54385,371.50011 L 779.10635,371.50011 L 786.4501,339.75011 L 717.85635,339.75011 L 725.98135,304.59386 L 643.29385,304.59386 L 635.16885,339.75011 L 611.73135,339.75011 L 605.5751,339.75011 L 543.1376,339.75011 L 551.2626,304.59386 L 468.5751,304.59386 z M 106.32205,339.73892 L 65.825288,515.14967 C 63.418773,522.20878 59.752966,521.8319 51.570815,522.15277 L 50.608209,562.10092 L 117.99063,561.86026 C 131.06603,561.13831 139.21491,553.72589 144.58946,535.43638 L 189.76977,339.73892 L 106.32205,339.73892 z M 119.98951,280.53864 L 109.65558,325.29983 L 193.1033,325.29983 L 203.43723,280.53864 L 119.98951,280.53864 z M 239.29385,339.75011 C 224.85477,339.75012 208.26802,352.04925 204.6376,371.50011 L 188.6376,436.96886 C 179.27284,477.53211 184.20976,501.46886 214.48135,501.46886 L 385.3251,501.46886 L 393.3251,466.81261 L 265.29385,466.81261 L 272.16885,436.96886 L 400.2001,436.96886 C 402.2537,428.07372 410.80305,415.14706 415.3251,371.50011 C 416.6053,365.955 407.76262,339.75011 374.5126,339.75011 L 239.29385,339.75011 z M 307.98135,371.50011 C 325.75108,371.50011 330.91518,377.05789 325.2001,401.81261 L 280.29385,401.81261 C 285.80848,377.9261 293.45487,371.5001 307.98135,371.50011 z M 799.21238,339.73892 L 769.87735,466.80292 C 769.87735,466.80292 761.87689,501.45673 810.59962,501.45673 L 893.34691,501.45673 C 889.21672,519.34655 887.23544,527.9284 839.14197,527.9284 L 755.76542,527.9284 L 748.32055,560.1757 L 879.79056,560.1757 C 940.41876,560.1757 962.20636,560.1757 969.65123,527.9284 L 1013.0982,339.73892 L 930.6824,339.73892 L 901.34737,466.80292 L 853.2539,466.80292 L 882.58893,339.73892 L 799.21238,339.73892 z M 1045.4591,339.73892 L 1031.1249,401.82701 L 1114.8716,401.82701 L 1129.2058,339.73892 L 1045.4591,339.73892 z M 1022.4578,439.36864 L 1008.1236,501.45673 L 1091.8702,501.45673 L 1106.2044,439.36864 L 1022.4578,439.36864 z M 1217.5384,280.53864 L 1102.1787,527.9284 L 1144.3505,527.9284 L 1259.7102,280.53864 L 1217.5384,280.53864 z M 1310.9112,280.53864 L 1195.5515,527.9284 L 1237.7233,527.9284 L 1353.083,280.53864 L 1310.9112,280.53864 z"
       style="fill:#fc390e;fill-opacity:1;fill-rule:evenodd;stroke:none;stroke-width:30;stroke-linecap:butt;stroke-linejoin:miter;stroke-miterlimit:4;stroke-dasharray:none;stroke-opacity:1"
       id="path3316" />
  </g>
</svg>
